<svg xmlns="http://www.w3.org/2000/svg" xmlns:xlink="http://www.w3.org/1999/xlink" id="Capa_1" x="0" y="0" version="1.1" viewBox="0 0 512 512" style="enable-background:new 0 0 512 512" xml:space="preserve"><g><g><g><rect width="31.998" height="31.998" x="96.397" y="284.966" transform="matrix(-0.9401 0.341 -0.341 -0.9401 320.6888 545.5591)"/><polygon points="271.552 301.072 193.696 254.352 152.08 269.504 163.024 299.568 190.304 289.648 272.448 338.928 370.048 273.856 480 315.088 480 480 32 480 32 347.2 72.8 332.352 61.872 302.304 0 324.8 0 512 512 512 512 292.912 365.952 238.144"/><polygon points="0 0 0 278.848 66.576 254.624 55.648 224.56 32 233.152 32 32 480 32 480 200.912 365.952 158.144 271.552 221.072 193.696 174.352 145.856 191.744 156.8 221.808 190.304 209.648 272.448 258.928 370.048 193.856 512 247.088 512 0"/><rect width="31.984" height="32" x="90.237" y="207.181" transform="matrix(-0.3419 -0.9397 0.9397 -0.3419 -67.18 399.3166)"/></g></g></g></svg>