<svg xmlns="http://www.w3.org/2000/svg" xmlns:xlink="http://www.w3.org/1999/xlink" width="100" height="100" preserveAspectRatio="xMidYMid" viewBox="0 0 100 100"><defs><clipPath id="ldio-owbkoh4un5-cp"><rect width="60" height="100" x="20" y="0"/></clipPath></defs><path fill="none" stroke="var(--primary, #00af87)" stroke-linecap="round" stroke-linejoin="round" stroke-miterlimit="10" stroke-width="6" d="M90,76.7V28.3c0-2.7-2.2-5-5-5h-3.4c-2.7,0-5,2.2-5,5v43.4c0,2.7-2.2,5-5,5h-3.4c-2.7,0-5-2.2-5-5V28.3c0-2.7-2.2-5-5-5H55 c-2.7,0-5,2.2-5,5v43.4c0,2.7-2.2,5-5,5h-3.4c-2.7,0-5-2.2-5-5V28.3c0-2.7-2.2-5-5-5h-3.4c-2.7,0-5,2.2-5,5v43.4c0,2.7-2.2,5-5,5H15 c-2.7,0-5-2.2-5-5V23.3" clip-path="url(#ldio-owbkoh4un5-cp)"><animateTransform attributeName="transform" dur="1.4925373134328357s" keyTimes="0;1" repeatCount="indefinite" type="translate" values="-20 0;7 0"/><animate attributeName="stroke-dasharray" dur="1.4925373134328357s" keyTimes="0;1" repeatCount="indefinite" values="0 72 125 232;0 197 125 233"/></path></svg>